<?xml version="1.0" encoding="UTF-8"?>
<svg width="24" height="24" viewBox="0 0 24 24" fill="none" xmlns="http://www.w3.org/2000/svg">
  <path d="M16.6 5.82C15.9165 5.03962 15.5397 4.03743 15.54 3H12.45V15.4C12.4262 16.071 12.1429 16.7066 11.6598 17.1729C11.1767 17.6393 10.5314 17.8999 9.86 17.91C8.44 17.91 7.26 16.75 7.26 15.31C7.26 13.67 8.79 12.37 10.43 12.86V9.71C7.16 9.3 4.26 11.88 4.26 15.31C4.26 18.61 7.02 21.01 9.85 21.01C12.99 21.01 15.54 18.46 15.54 15.32V9.01C16.793 9.90985 18.2754 10.3926 19.81 10.39V7.3C19.81 7.3 17.96 7.39 16.6 5.82Z" fill="currentColor"/>
</svg>
